<?xml version="1.0" standalone="no"?>
<!DOCTYPE svg PUBLIC "-//W3C//DTD SVG 20010904//EN"
 "http://www.w3.org/TR/2001/REC-SVG-20010904/DTD/svg10.dtd">
<svg version="1.0" xmlns="http://www.w3.org/2000/svg"
 width="1280.000000pt" height="556.000000pt" viewBox="0 0 1280.000000 556.000000"
 preserveAspectRatio="xMidYMid meet">
<metadata>
Created by potrace 1.16, written by Peter Selinger 2001-2019
</metadata>
<g transform="translate(0.000000,556.000000) scale(0.100000,-0.100000)"
fill="#000000" stroke="none">
<path d="M0 2780 l0 -2780 6400 0 6400 0 0 2780 0 2780 -6400 0 -6400 0 0
-2780z m5841 1866 c16 10 27 -31 22 -85 -4 -47 -1 -64 22 -106 37 -69 110
-177 133 -198 19 -17 19 -16 26 20 3 21 6 59 6 85 0 46 -1 47 -42 61 -39 13
-43 17 -40 43 7 79 21 92 92 86 38 -4 40 -6 40 -36 0 -18 -9 -68 -20 -110 -11
-43 -21 -104 -22 -137 -2 -58 -1 -60 42 -104 47 -48 45 -63 -2 -18 -27 26 -28
26 -28 5 0 -31 68 -95 115 -108 22 -6 31 -12 20 -13 -22 -1 -61 19 -125 64
-39 27 -51 30 -142 33 -73 3 -101 8 -105 18 -7 20 5 64 18 64 8 0 8 -4 1 -13
-6 -7 -7 -18 -3 -25 5 -9 15 -4 35 18 29 33 46 32 46 -4 0 -13 6 -28 13 -33
15 -13 117 -26 117 -16 0 59 -51 116 -169 187 -36 21 -77 47 -90 58 -32 25
-63 23 -107 -7 -20 -14 -45 -25 -56 -25 -20 0 -63 43 -74 73 -10 30 15 76 45
84 14 3 31 13 37 21 9 13 17 8 50 -28 62 -68 95 -98 149 -132 28 -17 63 -40
78 -50 16 -11 31 -18 33 -15 4 4 -59 108 -98 160 -7 10 -38 24 -68 32 -87 20
-86 19 -81 73 5 70 37 97 95 81 16 -5 32 -6 37 -3z m749 -26 c40 -21 87 -79
110 -140 7 -19 19 -42 25 -50 7 -8 22 -33 33 -55 21 -41 132 -158 132 -139 0
50 -27 134 -53 163 -76 88 -75 201 1 144 35 -26 51 -72 51 -149 1 -83 29 -201
58 -244 35 -52 28 -72 -10 -29 -18 20 -53 44 -81 54 -46 17 -51 17 -123 0 -48
-11 -92 -16 -124 -12 -53 7 -109 39 -109 63 0 19 75 53 117 54 38 0 136 -35
152 -54 13 -15 99 -42 107 -33 3 3 -13 26 -37 52 -49 53 -150 116 -227 141
-50 16 -57 16 -128 -1 -84 -20 -149 -16 -198 13 -73 42 -26 92 85 92 52 0 73
-6 125 -34 34 -19 84 -41 111 -49 26 -8 65 -22 86 -30 28 -12 37 -13 37 -3 0
22 -24 45 -80 73 -67 35 -140 120 -140 163 0 37 22 39 80 10z m-1224 -190 c6
0 44 -29 84 -65 106 -93 174 -136 232 -150 70 -15 79 -40 12 -32 -73 10 -137
-28 -178 -105 -17 -31 -43 -70 -57 -87 -31 -35 -95 -71 -126 -71 -35 0 -31 55
9 114 32 50 90 85 173 106 22 5 53 20 69 33 l30 24 -55 7 c-79 10 -170 -8
-262 -51 -67 -32 -82 -43 -94 -73 -21 -50 -90 -136 -127 -159 -17 -11 -49 -23
-70 -27 l-39 -7 7 42 c14 87 91 162 183 177 24 3 65 21 92 38 27 18 68 41 90
51 81 36 26 57 -67 26 -89 -30 -185 -25 -236 12 -15 11 -16 17 -7 34 25 48
137 54 230 12 24 -11 70 -26 102 -34 60 -16 209 -21 209 -7 0 5 -23 27 -51 50
-43 35 -59 42 -96 42 -65 0 -143 44 -143 81 0 19 24 29 55 23 11 -2 25 -4 31
-4z m1745 -47 c26 -5 27 -6 31 -106 4 -90 42 -276 54 -264 3 2 12 47 20 100
l16 95 -37 60 -37 61 34 30 c18 17 42 31 52 31 22 0 17 -8 -16 -24 -13 -6 -24
-20 -26 -30 -3 -16 1 -18 24 -13 16 3 37 1 47 -5 32 -17 40 5 15 38 l-23 29
23 -15 c13 -8 31 -28 40 -43 l17 -28 -46 -42 c-41 -38 -48 -51 -64 -117 -20
-87 -32 -220 -19 -220 5 0 32 20 59 44 50 44 50 44 37 77 -24 60 -25 69 -9 69
8 0 20 7 27 15 21 25 63 18 92 -15 30 -34 28 -51 -7 -74 -32 -21 -42 -20 -22
2 15 16 15 19 -4 30 -25 16 -64 -2 -55 -25 3 -8 6 -19 6 -25 0 -6 7 -8 15 -4
29 11 14 -1 -44 -38 -58 -36 -111 -87 -111 -108 0 -6 -7 -16 -15 -22 -8 -6
-19 -31 -24 -56 -6 -33 -9 -37 -10 -17 -2 42 -33 96 -95 161 -53 56 -55 60
-40 78 10 10 27 18 39 18 28 0 62 -47 46 -63 -18 -18 -13 -48 14 -83 14 -18
25 -37 25 -43 0 -22 20 -10 36 20 10 21 14 48 12 83 -6 68 -56 257 -75 278 -9
9 -35 20 -59 24 -67 10 -76 20 -65 78 10 57 34 80 71 71 14 -3 37 -9 51 -12z
m465 -508 c36 -23 83 -92 95 -139 6 -23 20 -59 31 -81 12 -22 35 -67 51 -100
l30 -60 10 32 c7 24 6 40 -6 65 -8 18 -21 60 -27 93 -22 116 30 200 72 115 23
-45 23 -102 -1 -181 -35 -116 -41 -161 -33 -239 l7 -75 27 42 c15 23 32 44 38
48 5 3 10 30 10 60 0 62 9 91 40 123 17 18 25 21 36 11 16 -13 19 -65 4 -74
-6 -4 -8 -11 -4 -16 3 -5 -18 -37 -46 -71 -61 -72 -120 -185 -120 -227 0 -16
-4 -33 -10 -36 -6 -4 -10 12 -10 40 0 72 -38 136 -102 173 -65 37 -121 95
-137 141 -16 50 -14 61 14 61 64 0 126 -60 159 -151 26 -75 51 -125 68 -135
16 -10 4 159 -17 216 -34 95 -69 151 -106 171 -67 34 -145 114 -159 163 -7 24
-9 49 -6 54 8 13 58 0 92 -23z m-2754 -40 c13 -14 32 -42 43 -62 11 -21 35
-63 54 -93 l33 -55 -45 50 -44 50 -39 -20 c-22 -11 -42 -21 -46 -23 -5 -2 -8
3 -8 12 0 8 -11 26 -25 40 -14 14 -25 33 -25 43 1 21 27 59 35 51 3 -3 -1 -11
-10 -18 -20 -16 -19 -39 2 -62 25 -28 47 -24 39 8 -4 15 -2 32 6 41 10 12 9
17 -3 27 -16 11 -15 36 1 36 5 0 20 -11 32 -25z m-217 -139 c40 -43 61 -57
105 -69 123 -34 248 -51 363 -48 56 2 64 -16 10 -21 l-38 -3 25 -14 c33 -19
105 -17 136 4 14 9 28 15 30 12 10 -10 -51 -40 -90 -44 -78 -8 -90 -14 -163
-86 -80 -77 -97 -80 -118 -23 -8 23 -5 30 17 51 l26 24 26 -20 c28 -22 29 -22
93 27 l41 32 -30 22 c-28 20 -39 22 -107 17 -86 -6 -258 -50 -279 -70 -7 -8
-16 -34 -19 -58 -8 -66 -18 -79 -59 -79 -79 0 -119 49 -95 116 7 19 9 38 6 44
-4 6 30 10 97 10 57 0 123 5 148 10 83 18 130 33 130 40 0 9 -156 50 -189 50
-13 0 -38 -11 -55 -23 -65 -50 -71 -50 -112 -13 -28 25 -37 42 -37 65 0 33 27
71 50 71 7 0 16 7 19 15 9 23 14 20 69 -39z m1707 -36 c17 -16 33 -30 36 -30
3 0 15 11 28 25 31 34 61 32 82 -5 19 -33 37 -37 66 -15 29 22 53 18 72 -10
19 -28 36 -32 54 -10 19 23 46 18 72 -14 13 -16 41 -38 64 -49 67 -34 68 -38
74 -214 l5 -159 60 -24 c33 -14 72 -38 88 -55 l27 -30 0 -180 0 -179 54 -36
c61 -40 85 -72 92 -118 10 -68 -60 -130 -210 -188 -339 -131 -1061 -108 -1388
44 -178 82 -198 202 -49 288 l60 34 1 192 0 191 30 25 c27 23 126 67 150 67 6
0 10 40 10 93 1 50 3 126 6 167 5 65 9 78 31 97 15 12 45 26 68 32 22 6 52 22
65 36 27 28 52 32 70 10 17 -21 44 -19 65 5 21 24 48 26 65 5 18 -22 46 -18
74 10 32 32 39 31 78 -5z m-1512 -349 c0 -5 -15 -20 -34 -35 -27 -20 -37 -38
-47 -80 -10 -48 -9 -63 10 -133 11 -44 21 -99 21 -124 0 -46 -35 -130 -57
-137 -15 -4 -50 50 -63 99 -13 47 4 141 35 195 27 46 47 121 35 129 -11 7
-102 -93 -133 -146 -34 -59 -67 -153 -67 -194 0 -18 7 -51 14 -74 35 -97 29
-210 -13 -262 -16 -20 -21 -22 -36 -9 -32 27 -49 74 -49 141 0 56 5 77 37 140
20 42 37 86 37 100 0 13 11 54 24 92 13 37 21 67 18 67 -18 0 -72 -42 -72 -55
0 -30 -49 -112 -88 -147 -46 -41 -108 -66 -125 -49 -16 16 8 85 46 128 20 22
63 51 112 74 115 54 147 77 199 141 25 32 46 59 46 61 0 2 -30 0 -66 -5 -55
-8 -75 -16 -116 -49 -54 -42 -80 -52 -124 -47 -37 4 -43 32 -14 63 24 25 110
51 136 41 39 -15 232 28 271 60 28 23 63 32 63 15z m3224 -7 c22 -22 20 -31
-2 -11 -10 10 -27 17 -37 17 -22 0 -55 -28 -55 -46 0 -7 8 -18 18 -24 16 -11
16 -11 0 -6 -10 3 -18 4 -18 1 0 -4 39 -74 47 -84 2 -3 14 6 28 19 21 20 23
26 12 39 -8 9 -17 23 -21 31 -5 9 -2 8 7 -2 18 -23 26 -23 35 1 6 16 10 17 24
7 15 -11 11 -18 -40 -73 -54 -56 -151 -218 -138 -230 3 -3 22 8 43 24 21 16
45 33 53 37 16 8 -4 -9 -87 -77 -29 -23 -53 -45 -53 -49 0 -11 39 -19 95 -21
47 -2 49 -1 57 33 10 36 28 64 28 42 0 -7 10 -13 23 -13 16 -1 18 -2 5 -6 -21
-5 -24 -33 -4 -33 8 0 16 -10 18 -22 4 -29 25 -34 33 -8 4 13 0 31 -11 48
l-17 27 22 -19 c17 -15 21 -29 19 -60 -3 -36 -6 -41 -30 -44 -15 -2 -37 2 -49
9 -34 18 -129 38 -181 39 -42 0 -50 -4 -77 -37 -33 -40 -42 -38 -15 2 20 31 4
33 -37 4 l-29 -20 18 30 c12 22 22 29 35 25 26 -8 69 12 92 44 36 50 125 224
125 246 0 12 -11 37 -25 56 -31 42 -32 67 -3 97 25 27 69 30 92 7z m127 -135
c11 -5 19 -14 19 -20 0 -6 -10 -3 -22 5 -12 9 -28 16 -34 16 -17 0 -51 -33
-57 -55 -4 -16 -5 -14 -6 7 0 14 1 33 4 41 7 17 69 21 96 6z m26 -86 c-3 -48
-11 -54 -68 -47 -33 5 -55 1 -79 -11 l-33 -17 24 30 c14 18 28 26 34 21 15
-15 77 -10 97 8 10 9 18 24 18 35 0 10 2 18 5 18 3 0 4 -17 2 -37z m-406 -22
c-11 -7 -11 -12 2 -31 16 -23 31 -12 20 16 -4 12 -3 15 5 10 7 -4 12 -23 12
-42 0 -30 -3 -34 -26 -34 -18 0 -28 -6 -32 -22 -5 -21 -6 -21 -13 -2 -4 10 -8
40 -8 67 -1 45 0 47 27 47 19 0 23 -3 13 -9z m283 -441 c30 -51 25 -129 -12
-223 -18 -43 -32 -86 -32 -96 0 -10 -9 -44 -19 -77 -11 -32 -18 -60 -16 -62 2
-2 17 5 32 16 18 13 33 36 40 64 19 69 81 140 137 154 25 6 26 4 25 -32 0 -34
-2 -36 -9 -16 -12 28 -30 28 -64 1 -24 -19 -66 -90 -66 -111 0 -5 26 5 58 22
l57 30 -40 -36 c-22 -20 -60 -46 -85 -59 -71 -37 -106 -67 -145 -124 l-35 -53
57 7 c48 5 62 12 81 36 28 35 71 59 107 59 39 0 43 -27 7 -62 -27 -27 -39 -32
-114 -39 -109 -11 -181 -31 -224 -64 -46 -35 -56 -24 -16 18 48 50 56 106 31
208 -22 87 -22 145 2 195 18 37 36 37 63 1 32 -43 29 -154 -6 -222 -29 -56
-44 -125 -29 -125 31 0 105 108 137 201 30 85 32 118 11 194 -23 82 -22 162 3
203 24 39 38 38 64 -8z m-3163 -202 c-11 -24 -31 -56 -43 -71 -20 -25 -23 -41
-26 -143 l-4 -114 -33 0 c-39 0 -52 13 -57 60 -3 33 -1 35 32 40 34 5 35 6 47
70 6 36 10 66 8 68 -9 9 -84 -21 -102 -40 -36 -39 -163 -260 -163 -283 0 -12
16 -42 35 -66 19 -24 35 -51 35 -59 0 -23 -69 -73 -101 -73 -31 0 -69 27 -69
50 0 7 -9 21 -20 30 -20 17 -19 19 48 88 63 64 172 229 159 241 -6 6 -131 -74
-164 -105 -15 -13 -23 -32 -23 -53 0 -43 -18 -108 -30 -108 -6 0 -10 3 -10 8
0 4 -18 6 -39 4 -32 -3 -45 1 -65 21 -22 22 -24 32 -21 79 l4 53 78 0 c76 0
80 1 155 48 42 26 100 69 129 95 l53 47 -79 12 c-91 14 -108 7 -119 -53 -7
-33 -15 -41 -30 -27 -4 4 -23 8 -43 9 -22 0 -41 8 -49 19 -14 18 -16 105 -3
105 4 0 14 2 21 5 9 4 19 -7 28 -30 7 -19 22 -37 32 -41 10 -3 18 -10 18 -15
0 -20 16 -7 27 21 11 30 11 30 -35 45 -40 13 -42 15 -12 10 19 -2 60 -12 90
-20 30 -8 84 -15 119 -15 63 0 67 1 110 43 l45 42 -28 -37 c-30 -43 -19 -49
31 -18 33 20 54 53 68 105 6 21 9 25 12 13 2 -9 -5 -36 -16 -60z m435 21 c55
-14 114 -66 114 -101 0 -29 -33 -63 -54 -55 -10 4 -13 16 -9 45 5 35 2 42 -21
57 -28 19 -86 16 -112 -6 -25 -21 -16 -73 21 -125 93 -131 98 -191 20 -264
-21 -20 -39 -25 -94 -28 -58 -3 -75 0 -119 22 -92 47 -132 136 -82 186 24 24
72 26 95 4 21 -21 14 -40 -14 -37 -15 2 -24 -5 -31 -22 -13 -35 3 -71 42 -95
80 -49 183 -5 183 78 0 33 -11 56 -54 118 -67 96 -77 144 -37 191 36 42 77 51
152 32z m2167 -74 c15 -38 30 -71 32 -74 3 -3 18 10 34 29 15 19 30 29 34 23
3 -5 -7 -25 -23 -44 -16 -19 -29 -39 -30 -45 0 -16 65 -163 79 -177 21 -21 31
13 31 111 0 60 4 91 10 87 6 -3 10 -51 10 -109 0 -89 -3 -107 -21 -130 -26
-33 -54 -33 -75 -1 -21 32 -30 26 -38 -25 -4 -27 -14 -45 -31 -56 -31 -20 -52
-13 -67 23 -10 25 -12 25 -15 8 -10 -54 -14 -65 -29 -79 -22 -22 -66 -20 -98
5 l-26 21 -15 -35 c-32 -77 -127 -115 -170 -67 -26 29 -37 25 -60 -23 -16 -34
-26 -43 -51 -45 -42 -4 -51 10 -66 103 -12 73 -16 80 -38 83 -14 2 -33 11 -44
20 -17 16 -18 15 -11 -38 8 -65 -7 -141 -36 -181 -40 -56 -152 -64 -186 -13
-21 33 -8 78 25 82 19 3 22 -1 22 -31 0 -56 55 -66 91 -16 21 30 22 37 15 185
-3 84 -9 159 -12 167 -6 17 -56 27 -142 27 -49 0 -64 -4 -69 -16 -18 -48 45
-103 87 -76 40 24 68 4 38 -26 -17 -17 -79 -15 -106 4 -51 35 -69 125 -32 159
16 15 34 17 119 13 97 -4 100 -3 111 20 12 27 33 25 39 -4 2 -10 8 -25 13 -31
15 -19 132 -17 169 3 33 17 43 15 34 -7 -10 -27 -51 -43 -125 -48 l-75 -6 3
-60 c4 -56 22 -106 22 -58 0 11 6 26 14 32 20 16 56 -19 56 -54 0 -29 3 -30
30 -13 29 18 40 1 46 -68 10 -117 21 -131 48 -64 9 23 16 69 16 109 0 82 26
130 80 147 44 14 65 8 79 -23 23 -50 -11 -124 -73 -158 -16 -9 -17 -14 -7 -33
16 -30 55 -38 86 -18 40 27 49 54 50 158 0 94 1 98 30 128 24 26 36 31 64 28
26 -3 36 1 48 19 23 34 41 28 48 -14 9 -52 42 -165 55 -183 9 -13 11 -13 19 0
21 32 23 105 3 155 -19 49 -27 57 -67 70 -19 6 -19 7 2 23 l22 17 -19 55 c-20
58 -25 92 -13 104 15 14 29 -3 56 -69z m-1188 -272 c-4 -38 -9 -75 -11 -85 -7
-25 12 -31 47 -13 21 11 35 13 41 7 11 -11 -38 -42 -67 -42 -22 0 -31 -32 -39
-137 -6 -79 -4 -93 8 -93 19 0 55 48 91 120 16 30 30 49 33 42 7 -22 -66 -158
-100 -187 -23 -20 -38 -25 -57 -20 -32 8 -41 21 -41 64 l0 35 -32 -31 c-45
-42 -70 -53 -118 -53 -43 0 -90 33 -90 64 0 26 -18 27 -56 1 -55 -37 -125 -35
-165 4 -25 25 -29 37 -29 84 0 48 -3 55 -22 61 -22 6 -34 -3 -72 -55 -20 -27
-60 -49 -90 -49 -32 0 -66 25 -66 48 0 10 -6 12 -22 7 -61 -19 -75 -17 -97 11
-25 32 -24 57 10 161 25 78 46 103 84 106 26 2 30 -1 27 -22 -1 -14 -13 -38
-26 -55 -29 -40 -46 -89 -46 -137 0 -31 4 -39 18 -39 29 0 39 13 61 74 21 60
63 116 88 116 22 0 14 -53 -14 -95 -42 -61 -36 -144 10 -145 15 0 77 67 77 83
0 8 -7 20 -15 27 -20 17 -19 89 1 118 12 17 24 22 47 20 31 -3 32 -5 31 -48 0
-25 -2 -56 -5 -70 -3 -19 1 -26 17 -28 16 -2 27 7 43 33 21 36 71 65 111 65
12 0 34 -7 50 -15 42 -22 41 -64 -3 -111 -28 -31 -41 -37 -85 -42 -47 -4 -52
-7 -52 -29 0 -13 12 -35 26 -50 20 -20 32 -24 55 -19 41 8 85 44 99 81 50 127
67 145 141 145 41 0 51 -4 65 -25 15 -22 15 -30 3 -62 -18 -45 -54 -73 -107
-80 -36 -5 -42 -9 -42 -29 0 -39 36 -67 78 -61 61 10 115 78 126 158 6 42 5
48 -19 63 -30 19 -25 36 11 36 13 0 24 3 24 8 0 4 4 33 10 66 10 62 23 86 47
86 12 0 13 -12 8 -67z m-1527 -145 c-3 -30 1 -55 15 -83 27 -56 45 -73 100
-102 92 -46 167 -131 167 -188 0 -21 -4 -25 -30 -25 -76 0 -152 73 -190 186
-25 71 -59 119 -73 105 -15 -15 5 -171 32 -242 36 -94 75 -145 135 -172 94
-43 175 -136 176 -201 0 -16 -6 -18 -46 -13 -77 8 -150 81 -179 180 -8 27 -32
77 -53 111 -21 33 -44 76 -51 93 -15 38 -27 35 -36 -7 -5 -22 0 -44 16 -78 31
-61 38 -172 15 -226 -20 -49 -44 -45 -73 14 -29 57 -29 104 1 193 39 119 47
175 39 262 l-8 80 -46 -65 c-37 -52 -45 -71 -42 -96 7 -47 -13 -107 -48 -139
-30 -29 -31 -29 -45 -11 -29 40 -10 94 60 176 65 75 126 179 132 226 8 54 12
64 25 64 7 0 10 -15 7 -42z m3155 -72 c-4 -28 -2 -34 16 -39 13 -3 21 -13 21
-27 0 -15 5 -20 18 -18 19 3 30 69 15 92 -4 6 0 3 10 -8 13 -14 17 -28 12 -46
-4 -14 -7 -34 -7 -46 0 -19 -7 -22 -87 -27 -76 -5 -202 -37 -224 -57 -4 -4 31
-15 79 -24 84 -17 87 -17 108 2 11 11 33 27 49 37 27 17 28 17 57 -14 41 -43
40 -79 -5 -120 -40 -36 -57 -33 -90 18 -11 17 -34 36 -50 41 -47 15 -182 40
-221 40 l-34 0 46 -60 c25 -33 48 -60 52 -60 4 0 21 9 37 20 35 23 45 25 45 7
0 -8 9 -22 20 -32 28 -25 25 -54 -11 -94 l-31 -33 -28 27 c-16 15 -34 41 -41
59 -20 49 -76 132 -103 154 -20 15 -36 18 -72 14 -34 -3 -45 -2 -40 7 4 6 18
11 32 11 32 0 23 16 -12 23 -33 6 -93 -10 -116 -31 -11 -9 -18 -11 -18 -4 0
19 43 41 98 52 57 10 110 47 152 105 31 43 57 53 75 28 19 -25 18 -44 -6 -72
-18 -23 -20 -23 -38 -6 -25 22 -48 14 -90 -29 l-33 -34 30 -16 c44 -23 74 -20
182 14 52 17 103 30 112 30 24 0 48 39 48 78 0 40 15 72 35 72 10 0 12 -9 8
-34z m-2477 -427 c8 -17 18 -51 21 -77 7 -57 39 -107 104 -162 54 -45 57 -54
32 -82 -21 -23 -42 -22 -72 3 -24 20 -24 21 -8 49 20 34 20 35 4 52 -7 7 -23
28 -36 46 -12 17 -26 32 -30 32 -12 0 -41 -69 -41 -98 0 -52 65 -279 85 -302
9 -10 36 -20 65 -22 27 -3 56 -10 63 -16 21 -18 6 -101 -23 -124 -25 -20 -65
-24 -76 -7 -4 8 1 9 16 4 32 -10 68 13 76 48 11 53 -49 79 -63 27 -4 -13 -14
-20 -30 -20 -22 0 -25 -4 -21 -25 3 -14 4 -25 2 -25 -1 0 -9 -2 -17 -6 -12 -4
-15 15 -20 108 -4 99 -22 184 -54 268 -6 15 -42 -141 -45 -190 0 -15 14 -47
36 -77 20 -28 36 -53 36 -56 0 -3 -14 -21 -32 -39 -29 -30 -30 -31 -14 -5 9
15 15 31 12 36 -9 13 -126 11 -126 -3 0 -19 42 -54 70 -59 22 -4 22 -4 -6 -6
-23 -1 -38 7 -62 35 -38 43 -36 63 11 96 18 12 37 29 44 38 21 28 73 330 56
330 -2 0 -31 -23 -64 -51 -62 -54 -71 -78 -44 -113 18 -24 19 -46 3 -46 -7 0
-24 -12 -37 -25 -28 -30 -52 -26 -96 16 -24 24 -28 32 -19 47 11 17 94 69 94
58 0 -3 -13 -12 -30 -21 -16 -9 -30 -19 -30 -23 0 -12 50 -31 56 -21 3 5 14 9
25 9 18 0 18 2 5 35 l-15 35 59 40 c81 55 100 82 101 144 2 51 2 51 8 11 6
-37 7 -38 18 -19 23 41 23 101 -1 149 -13 24 -19 42 -14 39 4 -3 15 -19 24
-35z m2142 -103 c-8 -70 -83 -147 -166 -169 -23 -6 -52 -20 -64 -31 -11 -10
-45 -34 -75 -52 -55 -33 -56 -34 -30 -43 21 -8 35 -5 73 16 59 33 156 37 199
9 30 -20 29 -32 -7 -59 -35 -26 -102 -31 -168 -12 -133 38 -172 43 -245 31
l-69 -11 51 -38 c44 -32 58 -37 105 -37 93 0 167 -72 95 -91 -40 -11 -64 1
-138 66 -76 67 -165 115 -214 115 -26 0 -35 4 -35 16 0 14 7 15 39 10 59 -9
125 39 167 123 40 78 97 138 143 151 45 12 54 5 46 -39 -14 -78 -69 -134 -165
-170 -30 -12 -68 -32 -85 -47 l-30 -25 80 4 c140 8 257 73 305 167 49 98 115
160 169 160 22 0 23 -3 19 -44z m-1043 -207 c59 -31 89 -41 131 -42 45 -2 54
-5 54 -20 0 -12 6 -17 18 -15 9 2 16 11 16 21 -1 12 6 17 22 17 20 0 24 -5 24
-28 0 -37 -17 -52 -56 -52 -27 0 -32 4 -37 29 -6 26 -10 29 -64 34 -31 3 -58
5 -60 3 -7 -7 19 -75 35 -89 22 -20 241 -147 254 -147 5 0 34 16 64 36 l55 37
29 -34 c41 -48 39 -78 -11 -122 -22 -21 -43 -37 -47 -37 -3 0 -35 28 -71 63
-58 55 -196 146 -206 135 -3 -2 19 -40 48 -83 l52 -80 65 -10 64 -10 3 -39 c2
-46 -20 -95 -45 -97 -77 -7 -93 -4 -99 19 -3 12 -2 38 1 57 4 21 1 47 -8 70
-18 43 -143 225 -155 225 -11 0 -28 -138 -18 -155 4 -8 14 -15 22 -15 7 0 26
-5 41 -10 21 -8 24 -14 16 -22 -7 -7 -12 -26 -12 -44 0 -41 -20 -57 -73 -58
-38 -1 -42 1 -45 25 -2 15 6 63 17 107 12 44 21 109 21 143 0 59 -2 66 -37
103 -36 36 -30 41 10 8 29 -25 31 -5 4 37 -19 29 -40 45 -79 60 -29 11 -46 20
-36 20 9 1 51 -17 93 -40z m-840 -119 c19 -19 46 -33 81 -41 47 -11 61 -10
119 9 79 26 161 28 210 5 39 -19 44 -33 18 -55 -21 -17 -56 -32 -49 -19 3 4
-18 7 -47 5 -29 -1 -38 -1 -22 2 46 7 105 26 105 35 0 16 -42 20 -120 13 -44
-3 -83 -11 -86 -15 -3 -5 6 -9 20 -9 14 0 28 -4 31 -10 3 -5 1 -10 -6 -10 -33
0 11 -19 51 -23 44 -3 44 -4 -10 -5 -40 -1 -69 5 -107 22 -29 14 -74 27 -100
31 l-48 6 55 -51 c59 -55 164 -111 245 -129 45 -11 56 -10 98 9 89 39 190 39
242 -1 25 -20 25 -22 9 -40 -50 -55 -165 -61 -255 -14 -27 14 -55 25 -63 25
-7 0 -50 11 -95 23 -44 13 -81 22 -81 20 0 -2 7 -17 15 -33 10 -20 27 -32 53
-39 62 -17 128 -66 157 -115 32 -55 28 -76 -15 -76 -62 0 -111 41 -156 130
-48 95 -90 153 -148 203 -62 54 -64 52 -46 -44 7 -38 18 -62 37 -79 43 -39 63
-76 63 -115 0 -59 -40 -60 -83 -2 -15 19 -21 47 -24 107 -6 107 -36 224 -68
262 -44 52 -28 68 20 18z"/>
<path d="M5736 4618 c-18 -27 -11 -68 11 -68 8 0 17 9 20 20 3 11 16 23 30 26
35 9 26 38 -14 42 -24 2 -35 -2 -47 -20z"/>
<path d="M5810 4584 c-17 -5 -52 -61 -42 -68 4 -2 22 -7 40 -11 l32 -7 0 46
c0 25 -3 45 -7 45 -5 -1 -15 -3 -23 -5z"/>
<path d="M6002 4528 c-14 -14 -16 -54 -3 -63 6 -3 15 3 20 14 6 11 20 23 32
26 16 5 18 10 8 21 -14 17 -41 18 -57 2z"/>
<path d="M5610 4487 c-31 -16 -39 -61 -14 -88 20 -23 37 -24 54 -5 8 11 9 20
1 33 -7 13 -6 22 6 35 29 32 -1 48 -47 25z"/>
<path d="M6032 4465 c-10 -21 -9 -26 10 -36 24 -13 38 1 38 39 0 31 -34 29
-48 -3z"/>
<path d="M5675 4457 c-5 -7 -10 -28 -11 -48 l0 -36 33 19 c44 26 48 36 27 59
-20 22 -35 24 -49 6z"/>
<path d="M5875 4160 c-8 -12 20 -24 35 -15 5 3 10 10 10 16 0 12 -37 12 -45
-1z"/>
<path d="M6550 4587 c0 -13 70 -87 83 -87 16 0 5 21 -32 59 -42 44 -51 49 -51
28z"/>
<path d="M5092 4270 c-18 -30 -8 -38 45 -35 27 2 56 4 66 4 32 2 17 21 -17 21
-18 0 -39 7 -46 15 -17 21 -33 19 -48 -5z"/>
<path d="M5444 4075 c-30 -13 -104 -87 -104 -104 0 -5 10 -11 23 -15 17 -4 30
3 57 32 34 37 70 86 70 97 0 7 -11 5 -46 -10z"/>
<path d="M5052 4040 c-26 -18 -44 -41 -47 -57 -4 -16 -8 -36 -10 -45 -4 -24
31 -24 71 1 30 19 101 117 91 127 -8 8 -67 -24 -102 -55 -18 -15 -14 -9 10 17
46 50 43 53 -13 12z"/>
<path d="M7022 4368 c-7 -7 -12 -27 -12 -45 0 -27 4 -33 21 -33 12 0 23 8 26
20 3 13 14 20 29 20 29 0 31 11 6 33 -22 20 -53 22 -70 5z"/>
<path d="M7070 4296 c0 -8 -7 -19 -15 -23 -11 -7 -5 -12 26 -20 44 -11 54 -4
47 34 -4 23 -58 32 -58 9z"/>
<path d="M7228 4299 c-22 -12 -22 -28 -3 -53 15 -19 16 -19 45 9 l30 29 -22
13 c-28 15 -29 15 -50 2z"/>
<path d="M7340 4115 c-14 -17 -5 -36 15 -29 7 3 23 1 34 -5 26 -14 34 0 15 27
-17 25 -46 29 -64 7z"/>
<path d="M7037 4014 c-13 -13 -7 -19 18 -20 16 -1 24 3 22 10 -4 13 -30 20
-40 10z"/>
<path d="M7042 3968 c3 -7 13 -15 22 -16 12 -3 17 1 14 10 -3 7 -13 15 -22 16
-12 3 -17 -1 -14 -10z"/>
<path d="M7517 3864 c-4 -4 -7 -12 -7 -17 0 -13 131 -140 137 -133 3 3 0 25
-7 49 -13 47 -52 97 -75 97 -7 0 -20 2 -27 5 -8 3 -17 2 -21 -1z"/>
<path d="M7780 3768 c-7 -23 -9 -53 -5 -67 3 -14 9 -38 12 -54 7 -38 21 -43
28 -10 4 15 11 38 16 51 12 30 12 75 0 68 -5 -4 -12 7 -16 24 -9 42 -22 37
-35 -12z"/>
<path d="M7550 3542 c0 -35 20 -65 70 -107 27 -22 53 -41 59 -43 13 -4 15 34
2 42 -5 3 -7 14 -5 24 5 18 -52 84 -77 88 -8 1 -22 5 -31 9 -14 5 -18 2 -18
-13z"/>
<path d="M7920 3537 c-9 -7 -15 -24 -15 -39 0 -24 2 -25 16 -12 9 8 18 12 21
9 2 -3 3 9 0 25 -2 17 -5 30 -6 30 0 0 -8 -6 -16 -13z"/>
<path d="M4803 3793 c-9 -19 -10 -30 -2 -39 6 -7 8 -18 4 -24 -7 -11 0 -12 33
-4 26 7 27 15 6 60 -20 41 -25 42 -41 7z"/>
<path d="M4562 3698 c-1 -13 -2 -30 -3 -38 -4 -34 2 -80 10 -80 5 0 23 12 40
26 l31 26 -32 44 c-35 50 -45 54 -46 22z"/>
<path d="M4492 3698 c-30 -30 -2 -108 40 -108 11 0 15 13 15 60 0 55 -2 60
-22 60 -11 0 -26 -5 -33 -12z"/>
<path d="M4558 3480 c2 -17 13 -35 23 -41 11 -5 19 -19 19 -31 0 -38 17 -6 23
43 6 46 6 47 -25 53 -45 9 -45 9 -40 -24z"/>
<path d="M4496 3468 c-32 -46 -6 -98 49 -98 19 0 37 5 40 10 10 17 -4 47 -25
53 -14 3 -20 14 -20 31 0 32 -23 34 -44 4z"/>
<path d="M4876 3424 c-7 -18 0 -34 15 -34 5 0 9 11 9 25 0 28 -15 34 -24 9z"/>
<path d="M4927 3434 c-4 -4 -7 -17 -7 -28 0 -19 1 -19 17 -3 12 11 14 20 7 27
-6 6 -13 7 -17 4z"/>
<path d="M6249 3654 c-10 -13 -10 -17 2 -25 36 -23 66 0 37 29 -16 16 -23 15
-39 -4z"/>
<path d="M6391 3647 c-13 -17 -5 -27 24 -27 12 0 25 3 28 7 9 8 -12 33 -28 33
-7 0 -18 -6 -24 -13z"/>
<path d="M6103 3634 c-10 -26 38 -47 52 -24 8 14 -13 40 -32 40 -7 0 -16 -7
-20 -16z"/>
<path d="M5977 3633 c-14 -13 -6 -31 15 -37 30 -7 45 8 28 29 -13 16 -32 20
-43 8z"/>
<path d="M6542 3628 c-26 -26 -7 -50 31 -40 22 6 22 15 -1 35 -14 13 -21 14
-30 5z"/>
<path d="M6181 3606 c-16 -19 -82 -21 -99 -4 -9 9 -17 7 -33 -11 -21 -22 -31
-23 -91 -5 -22 6 -24 -12 -3 -20 8 -3 20 -17 27 -30 20 -45 -21 -68 -89 -50
-26 7 -32 51 -11 72 15 15 0 16 -35 3 -30 -12 -41 -39 -25 -59 31 -37 186 -82
352 -103 110 -13 447 -7 506 10 19 5 54 15 78 21 49 13 84 43 76 65 -10 24
-22 18 -26 -12 -3 -26 -6 -28 -53 -28 -49 0 -50 1 -53 33 -2 22 2 34 12 38 30
12 16 24 -28 24 -29 0 -46 5 -49 15 -5 11 -18 13 -58 8 -42 -5 -54 -3 -64 10
-10 14 -36 17 -141 21 -71 2 -141 7 -155 11 -17 4 -30 1 -38 -9z m-55 -91 c45
-46 15 -86 -53 -69 -45 11 -55 42 -24 73 28 28 47 26 77 -4z m509 -20 c42 -41
27 -75 -35 -75 -60 0 -78 35 -38 77 27 29 43 29 73 -2z m-336 -12 c19 -23 20
-28 7 -47 -13 -20 -55 -25 -93 -11 -18 6 -16 45 4 67 23 26 58 22 82 -9z m165
6 c20 -15 26 -29 24 -48 -3 -23 -8 -26 -50 -29 -39 -3 -49 0 -58 17 -12 24 -1
54 28 70 24 14 26 14 56 -10z"/>
<path d="M6060 3505 c-20 -24 -4 -45 35 -45 39 0 46 17 17 43 -23 21 -36 21
-52 2z"/>
<path d="M6570 3485 c-27 -33 20 -61 60 -35 12 7 12 12 -4 29 -23 25 -39 26
-56 6z"/>
<path d="M6233 3483 c-24 -9 -14 -41 14 -47 37 -10 61 14 38 38 -17 16 -30 19
-52 9z"/>
<path d="M6406 3471 c-23 -25 -13 -41 25 -41 36 0 49 25 23 45 -25 19 -28 18
-48 -4z"/>
<path d="M6662 3597 c-15 -17 -6 -27 25 -27 18 0 24 5 21 17 -4 22 -31 28 -46
10z"/>
<path d="M5900 3545 c-19 -23 -4 -45 29 -45 38 0 48 16 25 41 -21 23 -37 24
-54 4z"/>
<path d="M6726 3511 c-24 -26 -13 -41 30 -41 38 0 45 17 16 43 -23 21 -25 21
-46 -2z"/>
<path d="M5812 3433 c3 -46 4 -48 32 -45 18 2 40 -5 57 -17 16 -12 42 -21 58
-21 23 0 38 -10 68 -45 20 -25 45 -45 55 -45 9 0 33 14 53 31 29 26 40 30 63
24 15 -4 50 -8 79 -9 36 -1 60 -8 81 -23 22 -17 38 -20 69 -16 29 4 48 0 74
-16 45 -27 52 -27 93 10 29 25 41 29 65 24 22 -5 38 -1 58 13 15 11 45 23 65
26 43 8 58 28 58 80 0 41 -1 41 -41 20 -92 -47 -424 -68 -630 -40 -154 22
-272 50 -316 76 -19 11 -36 20 -39 20 -3 0 -4 -21 -2 -47z"/>
<path d="M5817 3363 c-4 -3 -7 -49 -7 -102 l0 -96 45 -47 c49 -53 73 -59 112
-28 14 11 33 20 42 20 20 -1 66 -39 74 -62 10 -27 63 -23 99 7 39 33 53 32 95
-10 45 -45 82 -46 130 -5 41 37 62 38 101 5 41 -34 69 -32 109 10 38 40 64 44
99 16 21 -16 30 -18 55 -9 56 19 69 49 69 160 0 87 -2 99 -16 94 -9 -3 -24 -6
-33 -6 -10 0 -35 -12 -56 -26 -28 -19 -46 -24 -68 -20 -21 4 -37 -1 -61 -19
-40 -31 -78 -32 -123 -4 -25 15 -41 19 -61 13 -36 -10 -53 -6 -78 17 -17 16
-29 18 -62 13 -29 -5 -48 -2 -70 12 l-31 18 -40 -37 c-23 -20 -50 -37 -60 -37
-11 0 -39 22 -63 50 -34 40 -49 50 -74 50 -16 0 -39 7 -50 15 -20 15 -66 20
-77 8z"/>
<path d="M5707 3166 c-69 -29 -87 -42 -87 -67 0 -42 96 -88 255 -124 167 -37
271 -47 495 -48 224 -1 341 11 490 50 179 47 205 91 86 147 -58 27 -86 33 -86
16 0 -5 8 -10 18 -10 22 0 72 -50 72 -72 0 -35 -13 -47 -57 -54 -37 -5 -50 -3
-74 15 -35 26 -62 24 -67 -4 -7 -36 -23 -45 -79 -45 -38 0 -55 4 -59 15 -9 23
-69 19 -85 -5 -9 -13 -30 -22 -60 -26 -40 -5 -49 -3 -74 20 -34 32 -80 35 -95
6 -18 -33 -134 -24 -143 11 -6 24 -51 25 -96 3 -28 -14 -38 -14 -77 -3 -32 10
-46 20 -50 36 -8 31 -45 39 -78 18 -20 -13 -37 -16 -73 -10 -27 4 -51 12 -55
18 -17 26 -7 57 27 84 35 28 46 53 23 53 -7 0 -39 -11 -71 -24z"/>
<path d="M5760 3116 c-28 -31 -21 -51 20 -60 49 -9 58 -8 70 14 9 17 6 25 -14
45 -31 31 -46 31 -76 1z"/>
<path d="M6842 3085 c-30 -37 -19 -55 33 -55 53 0 64 14 38 48 -27 36 -47 38
-71 7z"/>
<path d="M5971 3067 c-29 -32 -19 -54 30 -62 65 -11 89 23 46 63 -30 28 -48
28 -76 -1z"/>
<path d="M6642 3054 c-15 -10 -22 -24 -20 -37 2 -18 11 -23 44 -25 57 -4 76
19 44 53 -27 29 -38 31 -68 9z"/>
<path d="M6190 3035 c-21 -22 -22 -27 -9 -39 8 -8 30 -18 51 -21 30 -6 38 -4
47 13 8 16 6 25 -10 46 -26 33 -49 33 -79 1z"/>
<path d="M6426 3037 c-48 -39 -20 -76 49 -63 42 8 47 34 13 66 -27 25 -27 25
-62 -3z"/>
<path d="M5622 2968 c4 -97 16 -112 71 -86 32 15 35 15 73 -8 29 -18 54 -24
95 -24 64 0 73 -7 113 -88 34 -66 63 -82 109 -58 17 9 54 32 81 51 58 42 78
43 123 9 28 -21 41 -25 71 -20 124 20 113 21 167 -23 85 -70 141 -65 200 19
31 44 33 45 84 45 49 0 55 3 85 38 18 22 40 37 53 37 12 0 33 4 47 10 24 9 26
14 26 68 0 32 -3 61 -6 64 -3 3 -24 -5 -47 -17 -93 -52 -355 -80 -666 -72
-277 7 -527 51 -639 112 l-43 24 3 -81z"/>
<path d="M5696 2858 c-11 -6 -32 -11 -48 -10 l-28 1 0 -139 0 -139 33 -24 c44
-34 138 -64 276 -89 103 -19 151 -22 426 -22 300 0 314 1 429 27 144 32 223
66 231 99 3 13 4 82 3 153 l-3 130 -35 -3 c-25 -3 -46 -15 -74 -43 -33 -33
-46 -40 -75 -39 -61 3 -67 1 -82 -27 -21 -39 -86 -83 -124 -83 -23 0 -52 14
-100 50 -37 28 -72 50 -77 50 -5 0 -25 -7 -45 -15 -51 -22 -87 -19 -121 10
-17 14 -38 25 -49 25 -10 0 -48 -20 -84 -45 -54 -39 -70 -45 -104 -43 -36 3
-43 8 -72 53 -65 100 -58 95 -122 95 -43 0 -65 5 -84 20 -28 23 -44 24 -71 8z"/>
<path d="M5538 2680 c-20 -11 -46 -33 -57 -49 -66 -92 30 -189 249 -249 359
-100 790 -108 1135 -21 232 58 336 138 293 226 -13 26 -90 93 -109 93 -5 0 -9
-30 -9 -66 0 -61 -2 -67 -32 -95 -39 -35 -125 -64 -263 -87 -145 -24 -614 -24
-775 1 -204 31 -333 77 -360 127 -5 10 -10 46 -10 79 0 68 -4 71 -62 41z"/>
<path d="M4674 3045 c-4 -22 -10 -32 -14 -25 -10 16 -20 -24 -20 -83 0 -32 5
-49 14 -53 8 -3 16 -14 19 -25 8 -29 27 -23 34 12 4 19 9 26 13 18 8 -11 5 36
-9 135 -7 60 -27 71 -37 21z"/>
<path d="M4384 2986 c-35 -19 -55 -38 -86 -80 -21 -29 -25 -42 -16 -47 22 -14
85 31 112 81 35 65 34 71 -10 46z"/>
<path d="M4291 2935 c-26 -30 -39 -55 -28 -55 1 0 20 20 40 45 45 53 34 61
-12 10z"/>
<path d="M4472 2798 c-6 -6 -12 -18 -12 -25 0 -7 -6 -12 -12 -10 -9 1 -14 -19
-16 -73 -2 -41 0 -71 4 -67 4 4 14 -7 21 -25 12 -29 15 -30 29 -16 12 12 16
34 15 89 -2 100 -12 144 -29 127z"/>
<path d="M7997 2860 c-5 -21 17 -40 47 -40 18 0 11 29 -12 48 -22 17 -29 15
-35 -8z"/>
<path d="M7740 3011 c0 -12 6 -21 16 -21 9 0 14 7 12 17 -5 25 -28 28 -28 4z"/>
<path d="M8010 2601 c-12 -23 -12 -146 -1 -176 7 -18 10 -17 30 15 25 42 27
104 5 148 -18 37 -20 38 -34 13z"/>
<path d="M7833 2365 c-10 -25 -11 -191 0 -201 15 -15 21 9 25 95 5 93 -8 147
-25 106z"/>
<path d="M8074 2075 c-14 -11 -15 -14 -4 -15 26 0 60 12 60 21 0 14 -34 10
-56 -6z"/>
<path d="M4386 2322 c-13 -40 21 -76 62 -65 27 7 29 33 3 33 -13 0 -21 8 -23
22 -4 29 -34 36 -42 10z"/>
<path d="M4775 2171 c-3 -5 3 -17 12 -27 11 -11 18 -13 21 -5 9 28 -18 55 -33
32z"/>
<path d="M4750 2132 c0 -12 7 -25 15 -29 27 -10 30 6 7 30 l-22 21 0 -22z"/>
<path d="M4338 2091 c12 -12 22 -27 22 -34 0 -11 59 -52 65 -45 2 2 6 22 10
46 7 42 6 42 -23 42 -16 0 -45 3 -63 6 l-34 7 23 -22z"/>
<path d="M4307 2073 c-4 -3 -7 -21 -7 -39 0 -41 36 -70 75 -60 32 8 34 42 2
50 -13 3 -29 17 -35 31 -12 25 -23 31 -35 18z"/>
<path d="M4497 1972 l-27 -28 21 -17 c12 -11 28 -15 40 -12 11 4 27 1 35 -6
26 -22 27 -1 0 34 -14 19 -26 39 -26 45 0 19 -15 14 -43 -16z"/>
<path d="M4467 1914 c-14 -14 -7 -61 11 -77 40 -37 112 -4 97 43 -6 19 -12 21
-42 15 -26 -5 -38 -2 -47 10 -6 9 -15 13 -19 9z"/>
<path d="M7294 2124 c-18 -44 -13 -82 19 -139 17 -29 29 -40 47 -40 29 0 38
24 39 105 1 73 -15 104 -57 108 -29 3 -34 0 -48 -34z"/>
<path d="M7099 2074 c-17 -20 -25 -119 -10 -128 20 -13 61 44 61 83 0 53 -25
76 -51 45z"/>
<path d="M5667 2053 c-11 -10 -8 -63 3 -63 6 0 10 16 10 35 0 36 -2 40 -13 28z"/>
<path d="M5838 1993 c-9 -10 -23 -33 -33 -52 -22 -44 -9 -57 38 -38 39 17 57
42 57 81 0 21 -5 26 -23 26 -13 0 -31 -8 -39 -17z"/>
<path d="M6067 1962 c-26 -28 -50 -93 -39 -104 19 -19 80 21 92 58 18 55 -18
85 -53 46z"/>
<path d="M4874 1711 c3 -22 12 -51 21 -65 17 -26 78 -76 92 -76 4 0 4 4 -2 8
-5 4 -26 25 -45 47 l-35 39 49 -42 c69 -59 99 -56 68 7 -15 33 -68 78 -125
107 l-28 15 5 -40z"/>
<path d="M4591 1621 c-10 -19 -15 -21 -22 -10 -6 10 -8 6 -5 -11 3 -14 5 -28
5 -32 2 -18 20 -6 31 21 16 39 8 65 -9 32z"/>
<path d="M4725 1476 c-5 -16 -14 -41 -21 -55 -17 -31 -17 -36 -3 -84 5 -21 14
-35 20 -32 5 4 9 1 9 -4 0 -24 21 -9 35 25 20 49 19 70 -9 129 l-23 50 -8 -29z"/>
<path d="M4920 1394 c0 -3 5 -15 11 -26 8 -15 8 -19 0 -14 -33 21 12 -61 54
-96 29 -25 42 -22 19 4 l-19 22 25 -16 c14 -9 24 -21 23 -26 -1 -5 9 -7 23 -4
23 4 25 8 20 35 -8 39 -49 83 -100 108 -41 20 -56 23 -56 13z"/>
<path d="M7906 1840 c-4 -19 -10 -43 -12 -52 -4 -15 1 -18 29 -18 30 0 35 3
35 26 0 14 -7 28 -15 31 -8 3 -18 15 -22 27 -7 18 -9 17 -15 -14z"/>
<path d="M7664 1835 c-1 -14 2 -25 6 -25 11 0 21 30 14 41 -10 16 -19 9 -20
-16z"/>
<path d="M7916 1678 l-29 -25 29 -38 29 -38 6 32 c4 17 4 45 0 62 l-6 32 -29
-25z"/>
<path d="M7967 1693 c-2 -5 -3 -30 -2 -58 2 -37 6 -49 16 -47 26 6 39 24 39
52 0 34 -41 75 -53 53z"/>
<path d="M7705 1541 c-6 -11 15 -61 26 -61 11 0 18 26 12 49 -5 22 -27 28 -38
12z"/>
<path d="M7765 1527 c4 -14 2 -28 -4 -31 -19 -12 -12 -27 12 -24 18 2 22 9 22
38 0 25 -5 36 -18 38 -14 3 -17 -1 -12 -21z"/>
<path d="M5554 1189 c-6 -10 11 -28 28 -29 15 0 20 23 7 31 -19 12 -26 11 -35
-2z"/>
<path d="M5552 1142 c3 -18 48 -30 48 -13 0 6 1 14 3 17 1 4 -11 8 -26 10 -22
2 -28 -1 -25 -14z"/>
<path d="M5185 1030 c-3 -5 -1 -19 5 -30 19 -35 90 -21 90 18 0 10 -8 12 -29
7 -17 -3 -32 -2 -36 4 -8 14 -22 14 -30 1z"/>
<path d="M5336 854 c-32 -27 -35 -34 -20 -34 11 0 26 -6 32 -12 10 -10 17 -10
32 0 10 6 26 9 35 6 25 -10 17 20 -12 48 l-28 26 -39 -34z"/>
<path d="M5500 846 c0 -41 1 -42 28 -38 16 2 32 13 37 25 6 12 21 24 35 28
l25 6 -25 6 c-14 3 -42 8 -62 11 l-38 5 0 -43z"/>
<path d="M7525 1325 c-20 -27 -24 -39 -16 -49 6 -7 8 -22 5 -32 -5 -15 0 -13
21 8 19 18 29 39 32 67 5 50 -6 52 -42 6z"/>
<path d="M6777 1056 c-22 -17 -22 -26 2 -26 10 0 21 7 24 15 8 20 -5 26 -26
11z"/>
<path d="M7000 875 c-7 -8 -10 -26 -8 -40 3 -14 -1 -30 -8 -36 -19 -15 -8 -29
21 -29 32 0 58 39 49 74 -8 35 -37 51 -54 31z"/>
<path d="M6933 854 l-33 -22 21 -26 c11 -14 24 -26 28 -26 16 0 31 45 24 71
l-8 25 -32 -22z"/>
<path d="M6581 766 c-14 -57 -14 -61 3 -47 11 9 14 8 12 -6 -1 -12 7 -19 25
-21 31 -4 52 18 47 49 -4 29 -24 35 -31 9 -3 -11 -10 -20 -16 -20 -7 0 -5 10
6 26 16 25 16 27 -2 40 -28 21 -32 18 -44 -30z"/>
<path d="M6808 698 c-3 -24 -4 -44 -3 -46 6 -7 61 30 67 45 13 35 9 43 -26 43
-33 0 -34 -2 -38 -42z"/>
<path d="M6881 686 c-5 -13 -19 -26 -30 -29 -36 -9 -26 -37 14 -37 38 0 55 20
55 64 0 33 -27 35 -39 2z"/>
<path d="M6270 780 c0 -5 -12 -10 -26 -10 -16 0 -24 -5 -22 -12 7 -19 89 -22
113 -4 19 15 18 15 -15 17 -32 1 -33 2 -10 9 24 8 23 8 -7 9 -18 1 -33 -3 -33
-9z"/>
<path d="M6238 718 c17 -8 26 -8 34 0 9 9 4 12 -22 11 -33 0 -34 -1 -12 -11z"/>
<path d="M6036 652 c-6 -11 61 -69 69 -60 3 2 -10 19 -29 37 -19 19 -36 28
-40 23z"/>
</g>
</svg>
